<svg width="24" height="25" viewBox="0 0 24 25" fill="none" xmlns="http://www.w3.org/2000/svg">
<path d="M7.8 2.03516H16.2C19.4 2.03516 22 4.63516 22 7.83516V16.2352C22 17.7734 21.3889 19.2487 20.3012 20.3364C19.2135 21.4241 17.7383 22.0352 16.2 22.0352H7.8C4.6 22.0352 2 19.4352 2 16.2352V7.83516C2 6.2969 2.61107 4.82165 3.69878 3.73394C4.78649 2.64623 6.26174 2.03516 7.8 2.03516ZM7.6 4.03516C6.64522 4.03516 5.72955 4.41444 5.05442 5.08957C4.37928 5.7647 4 6.68038 4 7.63516V16.4352C4 18.4252 5.61 20.0352 7.6 20.0352H16.4C17.3548 20.0352 18.2705 19.6559 18.9456 18.9807C19.6207 18.3056 20 17.3899 20 16.4352V7.63516C20 5.64516 18.39 4.03516 16.4 4.03516H7.6ZM17.25 5.53516C17.5815 5.53516 17.8995 5.66685 18.1339 5.90127C18.3683 6.13569 18.5 6.45364 18.5 6.78516C18.5 7.11668 18.3683 7.43462 18.1339 7.66904C17.8995 7.90346 17.5815 8.03516 17.25 8.03516C16.9185 8.03516 16.6005 7.90346 16.3661 7.66904C16.1317 7.43462 16 7.11668 16 6.78516C16 6.45364 16.1317 6.13569 16.3661 5.90127C16.6005 5.66685 16.9185 5.53516 17.25 5.53516ZM12 7.03516C13.3261 7.03516 14.5979 7.56194 15.5355 8.49962C16.4732 9.4373 17 10.7091 17 12.0352C17 13.3612 16.4732 14.633 15.5355 15.5707C14.5979 16.5084 13.3261 17.0352 12 17.0352C10.6739 17.0352 9.40215 16.5084 8.46447 15.5707C7.52678 14.633 7 13.3612 7 12.0352C7 10.7091 7.52678 9.4373 8.46447 8.49962C9.40215 7.56194 10.6739 7.03516 12 7.03516ZM12 9.03516C11.2044 9.03516 10.4413 9.35123 9.87868 9.91384C9.31607 10.4764 9 11.2395 9 12.0352C9 12.8308 9.31607 13.5939 9.87868 14.1565C10.4413 14.7191 11.2044 15.0352 12 15.0352C12.7956 15.0352 13.5587 14.7191 14.1213 14.1565C14.6839 13.5939 15 12.8308 15 12.0352C15 11.2395 14.6839 10.4764 14.1213 9.91384C13.5587 9.35123 12.7956 9.03516 12 9.03516Z" fill="#FFEDD8"/>
</svg>
