<svg width="24" height="25" viewBox="0 0 24 25" fill="none" xmlns="http://www.w3.org/2000/svg">
<path d="M8.08001 20.035C9.55871 20.0844 11.0323 19.837 12.4138 19.3073C13.7952 18.7775 15.0564 17.9762 16.1229 16.9508C17.1894 15.9253 18.0395 14.6964 18.623 13.3368C19.2065 11.9772 19.5115 10.5145 19.52 9.03496C20.1977 8.19637 20.7009 7.23079 21 6.19496C21.0223 6.11312 21.0205 6.02657 20.9948 5.94573C20.9691 5.86489 20.9206 5.79321 20.855 5.73932C20.7895 5.68543 20.7098 5.65163 20.6256 5.64198C20.5413 5.63234 20.456 5.64726 20.38 5.68496C20.0255 5.85561 19.6264 5.91073 19.2389 5.84256C18.8514 5.77439 18.495 5.58636 18.22 5.30496C17.869 4.92053 17.4443 4.61049 16.9713 4.39318C16.4982 4.17588 15.9863 4.05574 15.466 4.03989C14.9456 4.02404 14.4274 4.11279 13.942 4.30089C13.4565 4.48899 13.0138 4.77262 12.64 5.13496C12.1282 5.63061 11.7533 6.25025 11.5518 6.93363C11.3503 7.61702 11.329 8.34091 11.49 9.03496C8.14001 9.23496 5.84001 7.64496 4.00001 5.46496C3.94473 5.40236 3.87242 5.35721 3.79191 5.33503C3.7114 5.31284 3.62617 5.31458 3.54664 5.34003C3.4671 5.36549 3.39669 5.41355 3.34402 5.47835C3.29134 5.54316 3.25868 5.6219 3.25001 5.70496C2.89948 7.64938 3.15234 9.6545 3.97463 11.451C4.79692 13.2475 6.14926 14.7494 7.85001 15.755C6.70965 17.0628 5.10822 17.8796 3.38001 18.035C3.28742 18.0503 3.20195 18.0942 3.13556 18.1606C3.06917 18.2269 3.02518 18.3123 3.00975 18.4049C2.99433 18.4975 3.00823 18.5926 3.04951 18.6769C3.0908 18.7611 3.15741 18.8304 3.24001 18.875C4.74353 19.6263 6.39924 20.0231 8.08001 20.035Z" fill="#FFEDD8"/>
</svg>
